<mxfile host="app.diagrams.net" modified="2024-02-11T12:07:52.763Z" agent="Mozilla/5.0 (Windows NT 10.0; Win64; x64) AppleWebKit/537.36 (KHTML, like Gecko) Chrome/121.0.0.0 Safari/537.36 Edg/121.0.0.0" etag="txXxJKlSnyyFCsMANLU_" version="23.1.2" type="device">
  <diagram name="Page-1" id="65TRZTyE6jBAc-IG8p_M">
    <mxGraphModel dx="1423" dy="747" grid="1" gridSize="10" guides="1" tooltips="1" connect="1" arrows="1" fold="1" page="1" pageScale="1" pageWidth="827" pageHeight="1169" math="0" shadow="0">
      <root>
        <mxCell id="0" />
        <mxCell id="1" parent="0" />
        <mxCell id="R0KrfzqaYKyNT-aumEG5-3" value="&lt;font style=&quot;font-size: 12px;&quot;&gt;Inmate Management Subsystem&lt;br style=&quot;font-size: 12px;&quot;&gt;&lt;/font&gt;" style="rounded=0;whiteSpace=wrap;html=1;align=center;verticalAlign=top;fillColor=none;fontSize=12;" vertex="1" parent="1">
          <mxGeometry x="200" y="40" width="280" height="440" as="geometry" />
        </mxCell>
        <mxCell id="5dWf0GG96KCBTqZGnZEv-1" value="&lt;font style=&quot;font-size: 12px;&quot;&gt;Correctional&lt;br style=&quot;font-size: 12px;&quot;&gt;Officer&lt;/font&gt;" style="shape=umlActor;verticalLabelPosition=bottom;verticalAlign=top;html=1;outlineConnect=0;fillColor=none;fontSize=12;" parent="1" vertex="1">
          <mxGeometry x="40" y="240" width="38" height="80" as="geometry" />
        </mxCell>
        <mxCell id="5dWf0GG96KCBTqZGnZEv-2" value="Create inmate profile" style="ellipse;whiteSpace=wrap;html=1;fontSize=12;fillColor=none;strokeColor=default;" parent="1" vertex="1">
          <mxGeometry x="240" y="120" width="200" height="80" as="geometry" />
        </mxCell>
        <mxCell id="R0KrfzqaYKyNT-aumEG5-5" value="Update inmate profile" style="ellipse;whiteSpace=wrap;html=1;fontSize=12;fillColor=none;" vertex="1" parent="1">
          <mxGeometry x="240" y="240" width="200" height="80" as="geometry" />
        </mxCell>
        <mxCell id="R0KrfzqaYKyNT-aumEG5-6" value="Report on inmate profile" style="ellipse;whiteSpace=wrap;html=1;fontSize=12;fillColor=none;" vertex="1" parent="1">
          <mxGeometry x="240" y="360" width="200" height="80" as="geometry" />
        </mxCell>
        <mxCell id="R0KrfzqaYKyNT-aumEG5-15" value="" style="endArrow=none;html=1;rounded=0;exitX=0;exitY=0.5;exitDx=0;exitDy=0;fontSize=12;" edge="1" parent="1" source="5dWf0GG96KCBTqZGnZEv-2" target="5dWf0GG96KCBTqZGnZEv-1">
          <mxGeometry width="50" height="50" relative="1" as="geometry">
            <mxPoint x="21" y="740" as="sourcePoint" />
            <mxPoint x="116" y="640" as="targetPoint" />
          </mxGeometry>
        </mxCell>
        <mxCell id="R0KrfzqaYKyNT-aumEG5-16" value="" style="endArrow=none;html=1;rounded=0;exitX=0;exitY=0.5;exitDx=0;exitDy=0;fontSize=12;" edge="1" parent="1" source="R0KrfzqaYKyNT-aumEG5-5" target="5dWf0GG96KCBTqZGnZEv-1">
          <mxGeometry width="50" height="50" relative="1" as="geometry">
            <mxPoint x="249" y="190" as="sourcePoint" />
            <mxPoint x="135" y="362" as="targetPoint" />
          </mxGeometry>
        </mxCell>
        <mxCell id="R0KrfzqaYKyNT-aumEG5-17" value="" style="endArrow=none;html=1;rounded=0;exitX=0;exitY=0.5;exitDx=0;exitDy=0;fontSize=12;" edge="1" parent="1" source="R0KrfzqaYKyNT-aumEG5-6" target="5dWf0GG96KCBTqZGnZEv-1">
          <mxGeometry width="50" height="50" relative="1" as="geometry">
            <mxPoint x="268" y="210" as="sourcePoint" />
            <mxPoint x="154" y="382" as="targetPoint" />
          </mxGeometry>
        </mxCell>
      </root>
    </mxGraphModel>
  </diagram>
</mxfile>
